<svg xmlns="http://www.w3.org/2000/svg" xmlns:xlink="http://www.w3.org/1999/xlink" version="1.1" x="0px" y="0px" viewBox="0 0 100 100" enable-background="new 0 0 100 100" xml:space="preserve">
  <defs>
    <style type="text/css"><![CDATA[
       path, polygon, path, rect {
         stroke: white;
         fill: white;
       }
    ]]></style>
  </defs>
  <g>
    <path d="M84.166,20.713H60.584V17.19c0-1.576-1.098-2.811-2.5-2.811H41.917c-1.402,0-2.5,1.234-2.5,2.811v3.523H15.833   c-1.93,0-3.5,1.57-3.5,3.5v45.5c0,1.93,1.57,3.5,3.5,3.5h68.333c1.93,0,3.5-1.57,3.5-3.5v-45.5   C87.666,22.283,86.096,20.713,84.166,20.713z M42.423,17.379h15.161l-0.006,3.333H42.417L42.423,17.379z M84.666,69.713   c0,0.275-0.225,0.5-0.5,0.5H15.833c-0.276,0-0.5-0.225-0.5-0.5v-45.5c0-0.276,0.224-0.5,0.5-0.5h26.083h16.167h26.082   c0.275,0,0.5,0.224,0.5,0.5V69.713z"/>
    <polygon points="84.334,78.047 84.334,75.047 15.667,75.047 15.667,78.047 20.386,78.047 14.933,83.5 17.054,85.621 24.628,78.047    75.373,78.047 82.947,85.621 85.068,83.5 79.615,78.047  "/>
    <path d="M50.337,45.023v1.58h2.06l-8.619,8.619l-5.43-5.43l-1.118-1.118L25.473,60.432c-0.843-0.387-1.87-0.241-2.564,0.453   c-0.892,0.892-0.892,2.337,0,3.229c0.892,0.893,2.337,0.893,3.229,0c0.694-0.694,0.84-1.721,0.453-2.565l10.64-10.639l5.43,5.429   l1.117,1.117l9.735-9.735v2.058h1.579v-3.175v-1.579h-1.579H50.337z"/>
    <rect x="63.375" y="31" width="4.125" height="2"/>
    <rect x="63.375" y="35.75" width="11.375" height="2"/>
    <rect x="63.375" y="40.5" width="6.75" height="2"/>
    <rect x="63.375" y="45.25" width="14.5" height="2"/>
  </g>
</svg>