<svg xmlns="http://www.w3.org/2000/svg" xmlns:xlink="http://www.w3.org/1999/xlink" version="1.1" x="0px" y="0px" viewBox="0 0 100 125" style="enable-background:new 0 0 100 100;" xml:space="preserve">
  <defs>
    <style type="text/css"><![CDATA[
       path, polygon, path, rect {
         stroke: white;
         fill: white;
       }
    ]]></style>
  </defs>
  <g>
    <path d="M84.4,18.1c-6.2,0-11.3,5.1-11.3,11.3c0,3.6,1.7,6.8,4.3,8.9L67.1,51.5c-0.9-0.2-1.9-0.4-2.8-0.4c-1.4,0-2.7,0.3-3.9,0.7   l-13.1-8.5c1-1.7,1.6-3.6,1.6-5.7c0-6.2-5.1-11.3-11.3-11.3s-11.3,5.1-11.3,11.3c0,3.3,1.4,6.3,3.7,8.4L19.8,60.2   c-1.3-0.5-2.7-0.8-4.2-0.8c-6.2,0-11.3,5.1-11.3,11.3s5.1,11.3,11.3,11.3s11.3-5.1,11.3-11.3c0-2.5-0.9-4.9-2.3-6.8l11-15.2   c0.7,0.1,1.4,0.2,2.1,0.2c1.9,0,3.6-0.5,5.2-1.3l12.4,8.1c-1.4,1.9-2.3,4.2-2.3,6.7c0,6.2,5.1,11.3,11.3,11.3s11.3-5.1,11.3-11.3   c0-3-1.2-5.8-3.2-7.8l11-14c0.4,0,0.7,0.1,1.1,0.1c6.2,0,11.3-5.1,11.3-11.3S90.7,18.1,84.4,18.1z M15.6,75.9   c-2.9,0-5.3-2.4-5.3-5.3s2.4-5.3,5.3-5.3c1,0,2,0.3,2.8,0.8c0.1,0.2,0.3,0.3,0.5,0.5c0.1,0.1,0.3,0.2,0.4,0.3c1,1,1.6,2.3,1.6,3.7   C20.8,73.6,18.5,75.9,15.6,75.9z M32.3,37.6c0-2.9,2.4-5.3,5.3-5.3s5.3,2.4,5.3,5.3s-2.4,5.3-5.3,5.3S32.3,40.5,32.3,37.6z    M64.2,67.7c-2.9,0-5.3-2.4-5.3-5.3c0-2.9,2.4-5.3,5.3-5.3c2.9,0,5.3,2.4,5.3,5.3C69.5,65.3,67.1,67.7,64.2,67.7z M84.4,34.6   c-2.9,0-5.3-2.4-5.3-5.3s2.4-5.3,5.3-5.3s5.3,2.4,5.3,5.3S87.3,34.6,84.4,34.6z"/>
  </g>
</svg>